# xmcd
#
# Track frame offsets: 
#        150
#        13216
#        27518
#        41304
#        55523
#        70903
#        85215
#        99803
#        113621
#        128160
#        139280
#        152538
#        166425
#        179726
#        193910
#        206286
#        220585
#        233305
#        247118
#        260587
#
# Disc length: 3646 seconds
#
# Revision: 0
# Processed by: cddbd v1.5PL3 Copyright (c) Steve Scherf et al.
# Submitted via: ExactAudioCopy v0.95a3
#
DISCID=0e0e3c14
DTITLE=Kokomo Arnold - Orginal Kokomo Blues 1934-38
DYEAR=1998
DGENRE=Blues
TTITLE0=Old Original Kokomo Blues
TTITLE1=Milk Cow Blues
TTITLE2=Back to the Woods
TTITLE3=Sissy Man Blues
TTITLE4=Front Door Blues
TTITLE5=The Twelves (Dirty Dozens)
TTITLE6=Feels So Good
TTITLE7=Chain Gang Blues
TTITLE8=How Long How Long Blues
TTITLE9=Busy Bootin'
TTITLE10=Policy Wheel Blues
TTITLE11=I'll Be Up Someday
TTITLE12=Bull Headed Woman Blues
TTITLE13=Dark Angel
TTITLE14=Mister Charlie
TTITLE15=Cold Winter Blues
TTITLE16=Salty Dog
TTITLE17=Working at the Project
TTITLE18=Crying Blues
TTITLE19=Bad Luck Blues
EXTD=
EXTT0=
EXTT1=
EXTT2=
EXTT3=
EXTT4=
EXTT5=
EXTT6=
EXTT7=
EXTT8=
EXTT9=
EXTT10=
EXTT11=
EXTT12=
EXTT13=
EXTT14=
EXTT15=
EXTT16=
EXTT17=
EXTT18=
EXTT19=
PLAYORDER=
